<svg fill="#000000" height="200px" width="200px" version="1.1" id="Layer_1" xmlns="http://www.w3.org/2000/svg" xmlns:xlink="http://www.w3.org/1999/xlink" viewBox="0 0 512 512" xml:space="preserve"><g id="SVGRepo_bgCarrier" stroke-width="0"></g><g id="SVGRepo_tracerCarrier" stroke-linecap="round" stroke-linejoin="round"></g><g id="SVGRepo_iconCarrier"> <g> <g> <path d="M182.937,119.606C83.829,119.606,0,180.863,0,260.808c0,41.716,22.971,80.265,63.406,107.066l-4.759,49.371 c-1.176,12.184,11.2,21.054,22.324,16.198l75.397-32.908c98.278,11.09,190.558-40.334,206.975-116.087 C382.385,196.903,295.104,119.606,182.937,119.606z"></path> </g> </g> <g> <g> <path d="M468.596,108.139c-53.388-40.048-137.299-41.155-192.498-3.65c84.174,32.372,140.217,109.642,116.487,194.926 l44.108,22.141c10.121,5.081,22.242-1.716,23.127-13.052l2.872-36.744C525.955,229.52,528.795,153.298,468.596,108.139z"></path> </g> </g> </g></svg>