<svg width="22" height="23" viewBox="0 0 22 23" fill="none" xmlns="http://www.w3.org/2000/svg">
<path fill-rule="evenodd" clip-rule="evenodd" d="M18.7159 2.98543C18.9845 3.25402 18.9845 3.68943 18.7159 3.95802L4.25637 18.4166C4.12254 18.5513 3.94654 18.6183 3.77054 18.6183C3.59454 18.6183 3.41854 18.5513 3.2847 18.4166C3.01612 18.148 3.01612 17.7135 3.2847 17.4449L5.09232 15.6384C3.79632 14.453 2.69695 12.8551 1.88963 10.9735C1.81446 10.7993 1.81446 10.6031 1.88963 10.4299C2.82554 8.26287 4.14371 6.46895 5.70204 5.24337C8.72047 2.85458 12.6887 2.72778 15.8295 4.89992L17.7442 2.98543C18.0128 2.71685 18.4473 2.71685 18.7159 2.98543ZM18.3765 7.40468C19.0402 8.2856 19.6232 9.30402 20.1099 10.4279C20.186 10.602 20.186 10.8 20.1099 10.9733C18.1886 15.4255 14.7832 18.0829 11.0001 18.0829C10.1412 18.0829 9.28685 17.9436 8.46185 17.6695C8.1016 17.5494 7.90635 17.1599 8.02644 16.7996C8.14652 16.4384 8.53427 16.2469 8.89635 16.3642C9.5811 16.5924 10.2888 16.7079 11.0001 16.7079C14.1424 16.7079 17.0144 14.4694 18.7276 10.701C18.3096 9.78527 17.8229 8.95568 17.2784 8.23152C17.0501 7.9281 17.1106 7.49635 17.414 7.2681C17.7165 7.03985 18.1483 7.10218 18.3765 7.40468ZM6.55363 6.3232C5.23729 7.35903 4.10704 8.86787 3.27288 10.703C4.0002 12.3094 4.95572 13.6642 6.06555 14.6646L8.0252 12.7052C7.62652 12.1186 7.41199 11.427 7.41199 10.7027C7.41199 8.72267 9.02166 7.11208 10.9998 7.11208C11.7176 7.11208 12.4196 7.33063 13.0042 7.72561L14.8389 5.89099C12.2238 4.20045 9.04099 4.35467 6.55363 6.3232ZM13.9676 10.5404C14.3416 10.6073 14.59 10.9648 14.5231 11.3388C14.26 12.7991 13.1032 13.9578 11.6439 14.2236C11.6026 14.2309 11.5605 14.2346 11.5201 14.2346C11.1947 14.2346 10.905 14.0018 10.8445 13.6699C10.7767 13.2968 11.0242 12.9384 11.3982 12.8706C12.2965 12.7074 13.0079 11.9943 13.1692 11.095C13.237 10.7219 13.5945 10.4763 13.9676 10.5404ZM10.9998 8.48708C9.77974 8.48708 8.78699 9.48075 8.78699 10.7027C8.78699 11.0559 8.87016 11.3969 9.02693 11.7032L12.0021 8.72765C11.6958 8.57156 11.3513 8.48708 10.9998 8.48708Z" fill="#949494"/>
</svg>
