<svg width="23" height="22" viewBox="0 0 23 22" fill="none" xmlns="http://www.w3.org/2000/svg">
<path fill-rule="evenodd" clip-rule="evenodd" d="M11.0864 3.66711C14.8778 3.66986 18.2823 6.32728 20.1944 10.7768C20.2696 10.95 20.2696 11.1462 20.1944 11.3194C18.2832 15.7699 14.8778 18.4273 11.0864 18.43H11.0809C7.28959 18.4273 3.88509 15.7699 1.97292 11.3194C1.89867 11.1462 1.89867 10.95 1.97292 10.7768C3.88509 6.32728 7.29051 3.66986 11.0809 3.66711H11.0864ZM11.0837 5.04211C7.93401 5.04303 5.06117 7.28245 3.35617 11.0481C5.06117 14.8147 7.93309 17.0541 11.0837 17.055C14.2343 17.0541 17.1062 14.8147 18.8112 11.0481C17.1062 7.28245 14.2343 5.04303 11.0837 5.04211ZM11.0834 7.46285C13.0606 7.46285 14.6694 9.0716 14.6694 11.0488C14.6694 13.0252 13.0606 14.633 11.0834 14.633C9.10615 14.633 7.49832 13.0252 7.49832 11.0488C7.49832 9.0716 9.10615 7.46285 11.0834 7.46285ZM11.0834 8.83785C9.86423 8.83785 8.87332 9.82968 8.87332 11.0488C8.87332 12.2671 9.86423 13.258 11.0834 13.258C12.3026 13.258 13.2944 12.2671 13.2944 11.0488C13.2944 9.82968 12.3026 8.83785 11.0834 8.83785Z" fill="#949494"/>
</svg>
