<svg width="45" height="52" viewBox="0 0 45 52" fill="none" xmlns="http://www.w3.org/2000/svg">
<g clip-path="url(#clip0_31_517)">
<path d="M27.1655 1.38464C24.0132 0.493129 20.6962 0.365737 17.4685 1.15575C17.2191 1.2168 17.0605 1.49556 17.1144 1.77837C17.1682 2.06118 17.4141 2.24095 17.6635 2.1799C20.7546 1.42333 23.9387 1.54808 26.9674 2.40873C34.2103 4.46694 40.2391 10.6412 42.5354 18.7064C43.4234 21.8254 43.8006 25.1467 43.8762 28.6274C43.8824 28.9166 44.0943 29.1453 44.3494 29.1382C44.6045 29.1311 44.8063 28.8908 44.8 28.6016C44.7234 25.0731 44.3418 21.6665 43.4318 18.4445C41.0472 10.0008 34.746 3.5285 27.1655 1.38464Z" fill="#38A0F3"/>
<path d="M15.1237 2.96965C15.3697 2.8927 15.5141 2.60423 15.4462 2.32532C15.3784 2.04641 15.1239 1.88269 14.8779 1.95963C11.5024 3.01541 6.75415 6.66349 3.81965 11.537C3.81851 11.5389 3.81737 11.5409 3.81625 11.5428C1.23957 15.9453 -0.37564 21.4779 0.0753228 26.8466C0.0757522 26.8517 0.0762478 26.8568 0.0768095 26.8619C0.184887 27.8422 0.366323 28.8206 0.547972 29.8002C0.93056 31.8635 1.31409 33.9319 1.01515 36.0331C0.974512 36.3187 1.1458 36.5876 1.39773 36.6337C1.64966 36.6797 1.88683 36.4855 1.92747 36.1999C2.23996 34.0035 1.85194 31.8611 1.46385 29.7182C1.28437 28.7272 1.10487 27.7361 0.994632 26.7396C0.570491 21.6666 2.09822 16.3744 4.58458 12.1249C7.40745 7.43845 11.9786 3.95337 15.1237 2.96965Z" fill="#38A0F3"/>
<path d="M21.1871 4.1401C26.9882 3.73846 32.7881 6.4227 36.6832 11.5652C36.8495 11.7847 36.8273 12.1155 36.6337 12.304C36.4401 12.4925 36.1484 12.4674 35.9822 12.2479C32.278 7.3575 26.7589 4.80304 21.2406 5.1861C21.2386 5.18623 21.2366 5.18636 21.2347 5.18646C14.2561 5.56931 7.72062 10.9369 5.31674 18.4581C5.2298 18.7301 4.96483 18.8707 4.72491 18.7721C4.48499 18.6736 4.36097 18.3731 4.44791 18.1011C6.98031 10.1778 13.843 4.54441 21.1871 4.1401Z" fill="#38A0F3"/>
<path d="M38.0909 13.8539C37.9486 13.6137 37.6616 13.5498 37.4497 13.7111C37.2379 13.8724 37.1815 14.1979 37.3237 14.4381C39.4831 18.0835 40.3759 22.0504 40.7289 26.758C40.7505 27.0463 40.9741 27.2601 41.2284 27.2356C41.4827 27.2111 41.6713 26.9575 41.6497 26.6692C41.289 21.8588 40.3682 17.6986 38.0909 13.8539Z" fill="#38A0F3"/>
<path d="M41.3408 28.8934C41.5955 28.8754 41.8148 29.0948 41.8307 29.3836C42.0049 32.5425 42.0065 36.1166 41.6983 38.7578C41.6648 39.0446 41.4326 39.2464 41.1796 39.2084C40.9266 39.1705 40.7487 38.9072 40.7821 38.6204C41.0792 36.0747 41.0808 32.5765 40.9084 29.4489C40.8925 29.1602 41.0861 28.9115 41.3408 28.8934Z" fill="#38A0F3"/>
<path d="M4.61899 20.9955C4.67888 20.7142 4.52634 20.4312 4.27828 20.3633C4.03022 20.2954 3.78058 20.4683 3.72069 20.7496C3.38155 22.3421 3.20549 23.9781 3.19851 25.6156C3.19132 27.3034 3.46889 28.9509 3.74657 30.599C3.97372 31.9472 4.20094 33.2959 4.27241 34.6673C4.3663 36.4689 4.03207 38.2731 3.45452 39.9902C3.36359 40.2606 3.48318 40.5633 3.72161 40.6664C3.96005 40.7695 4.22706 40.6339 4.31798 40.3636C4.92846 38.5485 5.29851 36.5934 5.19492 34.6055C5.12393 33.2435 4.89673 31.9027 4.66962 30.5624C4.39249 28.9269 4.1155 27.2923 4.12262 25.6207C4.12925 24.0647 4.29656 22.5095 4.61899 20.9955Z" fill="#38A0F3"/>
<path d="M16.7432 9.35389C16.8383 9.62238 16.7234 9.92743 16.4866 10.0353C11.6964 12.2163 8.09918 17.1382 7.36534 22.9422C7.05875 25.367 7.38999 27.7689 7.72113 30.1702C7.90761 31.5225 8.09407 32.8745 8.16656 34.2304C8.32375 37.1704 8.02839 40.3997 6.34081 43.3379C6.20155 43.5804 5.91531 43.6489 5.70147 43.4911C5.48763 43.3332 5.42716 43.0086 5.56641 42.7662C7.10397 40.0892 7.39502 37.1157 7.24414 34.2938C7.17059 32.9181 6.98529 31.5503 6.80012 30.1835C6.46788 27.731 6.13602 25.2814 6.45058 22.7935C7.23412 16.5964 11.0652 11.3746 16.1422 9.06298C16.379 8.95516 16.6481 9.0854 16.7432 9.35389Z" fill="#38A0F3"/>
<path d="M32.9641 12.3365C29.1851 8.32342 23.7078 6.92279 18.73 8.16071C18.4807 8.22269 18.3229 8.50204 18.3776 8.78465C18.4323 9.06726 18.6787 9.24611 18.9279 9.18413C23.6416 8.01191 28.7991 9.3491 32.3324 13.1012C35.3105 16.2637 37.0399 20.8654 37.4926 25.886C37.5185 26.1738 37.7453 26.3833 37.9992 26.3539C38.2531 26.3244 38.4378 26.0673 38.4119 25.7794C37.9418 20.5662 36.1395 15.7084 32.9641 12.3365Z" fill="#38A0F3"/>
<path d="M38.3152 28.2743C38.569 28.2448 38.796 28.4541 38.822 28.742C39.2609 33.5862 39.0717 38.8184 38.4093 43.8801C38.3718 44.1662 38.1368 44.3638 37.8844 44.3214C37.632 44.2789 37.4577 44.0125 37.4952 43.7263C38.1484 38.735 38.3324 33.5917 37.9028 28.849C37.8767 28.5612 38.0613 28.3039 38.3152 28.2743Z" fill="#38A0F3"/>
<path d="M22.2061 11.2793C15.1256 11.2793 9.37272 17.6839 9.37272 25.6022C9.37272 26.448 9.43892 27.2768 9.56512 28.0826C9.60973 28.3675 9.84958 28.5574 10.1008 28.5069C10.3521 28.4563 10.5196 28.1843 10.475 27.8995C10.3582 27.1534 10.2968 26.3859 10.2968 25.6022C10.2968 18.2786 15.6217 12.3271 22.2061 12.3271C25.1816 12.3271 27.9002 13.543 29.9869 15.5522C30.1814 15.7395 30.473 15.7125 30.6382 15.492C30.8034 15.2714 30.7796 14.9408 30.5851 14.7536C28.3365 12.5885 25.4074 11.2793 22.2061 11.2793Z" fill="#38A0F3"/>
<path d="M31.6203 16.7068C31.8045 16.5065 32.097 16.5135 32.2737 16.7223C34.3128 19.1332 34.9655 22.9225 35.3974 26.1024C35.8839 29.6844 35.9582 33.1788 35.9582 34.7991C35.9582 35.0884 35.7513 35.3229 35.4961 35.3229C35.241 35.3229 35.0341 35.0884 35.0341 34.7991C35.0341 33.2051 34.9605 29.7698 34.4841 26.2619C34.0831 23.3097 33.5051 19.6921 31.6067 17.4475C31.43 17.2387 31.4362 16.9071 31.6203 16.7068Z" fill="#38A0F3"/>
<path d="M35.8409 37.7993C35.8612 37.5109 35.6714 37.2584 35.417 37.2354C35.1626 37.2124 34.94 37.4276 34.9197 37.716C34.6928 40.943 34.3963 44.1664 33.7946 47.144C33.7376 47.426 33.8931 47.707 34.1418 47.7716C34.3906 47.8362 34.6384 47.66 34.6954 47.378C35.3129 44.3219 35.6134 41.0348 35.8409 37.7993Z" fill="#38A0F3"/>
<path d="M10.3089 30.0108C10.5592 29.9549 10.8022 30.1397 10.8515 30.4236C11.8284 36.0485 11.1535 41.1583 8.56638 45.6343C8.4265 45.8763 8.14009 45.9439 7.92665 45.7853C7.71321 45.6267 7.65358 45.302 7.79345 45.06C10.2277 40.8486 10.8828 36.0268 9.94478 30.626C9.89548 30.3421 10.0585 30.0667 10.3089 30.0108Z" fill="#38A0F3"/>
<path d="M22.2061 14.6879C17.6099 14.6879 13.1011 18.7217 12.6408 23.7914C12.4394 26.0108 12.7224 28.197 13.0055 30.3841C13.2528 32.2939 13.5001 34.2043 13.425 36.1381C13.2532 40.5639 12.1078 44.2172 10.1398 47.2262C9.98785 47.4586 10.0308 47.7867 10.2358 47.9591C10.4408 48.1314 10.7301 48.0827 10.8821 47.8503C12.9694 44.6589 14.169 40.8 14.3482 36.1842C14.423 34.2591 14.1749 32.3548 13.927 30.4517C13.6435 28.2754 13.3602 26.1008 13.5601 23.8986C13.9644 19.445 18.0075 15.7357 22.2061 15.7357C24.1644 15.7357 29.2311 16.9379 30.8428 22.8906C31.8528 26.6209 32.1283 31.6694 31.8836 36.574C31.639 41.4779 30.8781 46.1683 29.8549 49.1759C29.7631 49.4459 29.8816 49.7491 30.1197 49.8532C30.3578 49.9574 30.6253 49.8229 30.7171 49.553C31.7876 46.4063 32.5587 41.5972 32.8063 36.6331C33.0538 31.6697 32.7817 26.4815 31.7262 22.5831C29.9372 15.9754 24.329 14.6879 22.2061 14.6879Z" fill="#38A0F3"/>
<path d="M15.0954 45.6351C15.3092 45.7932 15.3694 46.1177 15.23 46.3601C14.9435 46.8582 14.6914 47.3793 14.4394 47.9004C14.1873 48.4216 13.9352 48.9428 13.6486 49.441C13.5092 49.6833 13.2229 49.7516 13.0092 49.5936C12.7955 49.4355 12.7352 49.1109 12.8746 48.8686C13.1611 48.3705 13.4132 47.8494 13.6652 47.3283C13.9173 46.8071 14.1694 46.2858 14.456 45.7877C14.5954 45.5454 14.8817 45.477 15.0954 45.6351Z" fill="#38A0F3"/>
<path d="M19.0519 20.126C19.264 19.9651 19.3209 19.6398 19.179 19.3993C19.0372 19.1588 18.7502 19.0942 18.5381 19.2551C16.7084 20.6426 15.5859 22.5506 15.5859 25.3458C15.5859 27.0101 15.8459 28.3706 16.1127 29.7659C16.5118 31.854 16.7825 33.9375 16.7339 36.0822C16.6748 38.6865 16.2254 41.0663 15.3614 43.3334C15.2602 43.599 15.3681 43.9074 15.6023 44.0221C15.8366 44.1369 16.1086 44.0146 16.2098 43.749C17.1232 41.3519 17.5958 38.8393 17.6577 36.1091C17.7082 33.8805 17.43 31.7145 17.016 29.5444C16.7487 28.1429 16.51 26.8917 16.51 25.3458C16.51 22.9509 17.4392 21.3489 19.0519 20.126Z" fill="#38A0F3"/>
<path d="M20.8553 18.2853C22.7727 17.8421 24.836 18.3898 26.3546 19.7834C29.0673 22.2728 29.4281 26.8126 29.7205 30.4914L29.7354 30.6788C30.1131 35.4209 29.6807 40.0269 28.8096 44.6525C28.7563 44.9355 28.5108 45.1159 28.2612 45.0555C28.0117 44.995 27.8526 44.7167 27.9058 44.4337C28.7639 39.8775 29.1821 35.3811 28.815 30.7731C28.8028 30.6205 28.7908 30.4658 28.7785 30.3092L28.7783 30.3069C28.5187 26.9825 28.1934 22.8188 25.7733 20.5978C24.4748 19.4063 22.6941 18.9296 21.0399 19.312C20.7898 19.3697 20.5458 19.1868 20.4948 18.9033C20.4439 18.6198 20.6052 18.3431 20.8553 18.2853Z" fill="#38A0F3"/>
<path d="M28.1565 47.2593C28.2195 46.9789 28.0701 46.6937 27.8228 46.6223C27.5755 46.551 27.3239 46.7204 27.261 47.0008C26.9816 48.2448 26.5512 49.3677 26.0055 50.4014C25.8744 50.6497 25.9457 50.9714 26.1646 51.12C26.3836 51.2686 26.6674 51.1878 26.7984 50.9395C27.3865 49.8254 27.8534 48.609 28.1565 47.2593Z" fill="#38A0F3"/>
<path d="M25.897 39.6569C26.1505 39.6909 26.3316 39.9514 26.3016 40.2387C25.8652 44.4198 24.88 48.1487 23.2992 51.3829C23.1755 51.636 22.8943 51.7275 22.6711 51.5872C22.4479 51.447 22.3672 51.1281 22.4909 50.8751C24.0038 47.7799 24.959 44.1864 25.3839 40.1156C25.4139 39.8283 25.6436 39.6229 25.897 39.6569Z" fill="#38A0F3"/>
<path d="M25.8018 25.071C25.4815 23.1304 24.0124 21.6459 22.229 21.6459C19.814 21.6459 18.1196 24.4058 18.7167 26.9736C19.727 31.5062 19.8928 35.8747 19.2089 40.0821L19.2084 40.0852C18.6149 43.8628 17.4751 47.2611 15.9205 50.1408C15.7872 50.3876 15.8557 50.7101 16.0733 50.8611C16.291 51.0122 16.5754 50.9346 16.7086 50.6878C18.3269 47.6903 19.5054 44.168 20.118 40.2705C20.8281 35.9007 20.6521 31.3791 19.612 26.7142L19.6108 26.7087C19.1629 24.7879 20.4113 22.6936 22.229 22.6936C23.5408 22.6936 24.6483 23.7877 24.8929 25.2602C25.5654 29.6832 25.9157 33.7848 25.6663 37.3162C25.646 37.6046 25.8356 37.8572 26.09 37.8803C26.3444 37.9034 26.5671 37.6883 26.5875 37.3999C26.846 33.7395 26.4811 29.5369 25.803 25.0784C25.8026 25.0759 25.8022 25.0735 25.8018 25.071Z" fill="#38A0F3"/>
<path d="M20.8502 47.7604C21.0772 47.8926 21.1667 48.2085 21.05 48.4658L19.8257 51.1672C19.7091 51.4245 19.4305 51.5259 19.2035 51.3937C18.9766 51.2614 18.8871 50.9456 19.0037 50.6883L20.2281 47.9869C20.3447 47.7296 20.6233 47.6282 20.8502 47.7604Z" fill="#38A0F3"/>
<path d="M22.5726 25.5762C22.5143 25.2945 22.2656 25.1198 22.0172 25.186C21.7687 25.2521 21.6147 25.5341 21.673 25.8158C23.2312 33.336 23.0172 39.9395 21.1192 45.5648C21.0281 45.835 21.1474 46.1379 21.3857 46.2413C21.6241 46.3446 21.8912 46.2094 21.9824 45.9391C23.9613 40.0738 24.1625 33.2491 22.5726 25.5762Z" fill="#38A0F3"/>
</g>
<defs>
<clipPath id="clip0_31_517">
<rect width="45" height="51.0204" fill="white" transform="translate(0 0.632568)"/>
</clipPath>
</defs>
</svg>
