<svg width="18" height="22" viewBox="0 0 18 22" fill="none" xmlns="http://www.w3.org/2000/svg">
<path d="M14.7414 21.0586C13.5982 22.1894 12.35 22.0108 11.1485 21.4752C9.87701 20.9276 8.71049 20.9038 7.36899 21.4752C5.68921 22.2132 4.80265 21.9989 3.79945 21.0586C-1.89317 15.0712 -1.05328 5.95334 5.40924 5.62005C6.98404 5.70337 8.08057 6.50089 9.00212 6.57231C10.3786 6.28663 11.6968 5.46531 13.1666 5.57244C14.928 5.71528 16.2579 6.42947 17.1328 7.71502C13.4932 9.94093 14.3564 14.8332 17.6927 16.2021C17.0278 17.9875 16.1646 19.7611 14.7297 21.0705L14.7414 21.0586ZM8.88547 5.54863C8.71049 2.8942 10.8219 0.704005 13.2483 0.489746C13.5865 3.56079 10.5186 5.84621 8.88547 5.54863Z" fill="black"/>
</svg>
