<svg width="25" height="26" viewBox="0 0 25 26" fill="none" xmlns="http://www.w3.org/2000/svg">
<path d="M25 13.2448C25 6.2004 19.4036 0.489746 12.5 0.489746C5.59644 0.489746 0 6.2004 0 13.2448C0 20.2893 5.59644 26 12.5 26C19.4036 26 25 20.2893 25 13.2448Z" fill="#337FFF"/>
<path d="M15.5586 14.075L15.9148 11.7656H13.7206V10.2645C13.7206 9.63304 14.0269 9.016 15.0064 9.016H16.018V7.04945C15.4289 6.95358 14.8337 6.90173 14.237 6.89429C12.4311 6.89429 11.2521 8.00205 11.2521 10.0047V11.7656H9.25024V14.075H11.2521V19.6607H13.7206V14.075H15.5586Z" fill="white"/>
</svg>
