<svg width="19" height="22" viewBox="0 0 19 22" fill="none" xmlns="http://www.w3.org/2000/svg">
<g clip-path="url(#clip0_31_524)">
<path d="M18.9909 11.4251C18.9909 10.5472 18.9263 9.90656 18.7863 9.24219H9.68921V13.2047H15.029C14.9214 14.1894 14.3401 15.6724 13.0481 16.6689L13.03 16.8016L15.9064 19.2571L16.1056 19.279C17.9358 17.4164 18.9909 14.6758 18.9909 11.4251Z" fill="#4285F4"/>
<path d="M9.68921 21.8653C12.3053 21.8653 14.5015 20.9161 16.1056 19.279L13.0481 16.6688C12.2299 17.2976 11.1318 17.7366 9.68921 17.7366C7.12696 17.7366 4.95227 15.874 4.17706 13.2996L4.06343 13.3102L1.07256 15.8609L1.03345 15.9807C2.62678 19.4687 5.8996 21.8653 9.68921 21.8653Z" fill="#34A853"/>
<path d="M4.1771 13.2995C3.97256 12.6352 3.85418 11.9233 3.85418 11.1878C3.85418 10.4522 3.97256 9.74035 4.16634 9.07598L4.16093 8.93449L1.13258 6.34277L1.0335 6.39471C0.376809 7.84212 0 9.4675 0 11.1878C0 12.908 0.376809 14.5333 1.0335 15.9807L4.1771 13.2995Z" fill="#FBBC05"/>
<path d="M9.68921 4.63885C11.5086 4.63885 12.7359 5.50491 13.4357 6.22866L16.1702 3.2864C14.4908 1.56614 12.3053 0.510254 9.68921 0.510254C5.8996 0.510254 2.62678 2.90674 1.03345 6.39469L4.1663 9.07596C4.95227 6.5015 7.12696 4.63885 9.68921 4.63885Z" fill="#EB4335"/>
</g>
<defs>
<clipPath id="clip0_31_524">
<rect width="19" height="21.4286" fill="white" transform="translate(0 0.510254)"/>
</clipPath>
</defs>
</svg>
