<svg width="251" height="17" viewBox="0 0 251 17" fill="none" xmlns="http://www.w3.org/2000/svg">
<path d="M0.5 8.5L112.5 9L112.5 8L0.5 8.5Z" fill="#949494"/>
<path d="M122.955 6.797C123.473 6.797 123.939 6.88333 124.355 7.056C124.77 7.22867 125.125 7.47367 125.419 7.791C125.713 8.10833 125.937 8.49333 126.091 8.946C126.249 9.394 126.329 9.89567 126.329 10.451C126.329 11.011 126.249 11.515 126.091 11.963C125.937 12.411 125.713 12.7937 125.419 13.111C125.125 13.4283 124.77 13.6733 124.355 13.846C123.939 14.014 123.473 14.098 122.955 14.098C122.432 14.098 121.961 14.014 121.541 13.846C121.125 13.6733 120.771 13.4283 120.477 13.111C120.183 12.7937 119.956 12.411 119.798 11.963C119.644 11.515 119.567 11.011 119.567 10.451C119.567 9.89567 119.644 9.394 119.798 8.946C119.956 8.49333 120.183 8.10833 120.477 7.791C120.771 7.47367 121.125 7.22867 121.541 7.056C121.961 6.88333 122.432 6.797 122.955 6.797ZM122.955 13.125C123.655 13.125 124.177 12.8917 124.523 12.425C124.868 11.9537 125.041 11.298 125.041 10.458C125.041 9.61333 124.868 8.95533 124.523 8.484C124.177 8.01267 123.655 7.777 122.955 7.777C122.6 7.777 122.29 7.83767 122.024 7.959C121.762 8.08033 121.543 8.25533 121.366 8.484C121.193 8.71267 121.062 8.995 120.974 9.331C120.89 9.66233 120.848 10.038 120.848 10.458C120.848 11.298 121.02 11.9537 121.366 12.425C121.716 12.8917 122.245 13.125 122.955 13.125ZM129.092 8.33C129.316 7.84467 129.591 7.46667 129.918 7.196C130.245 6.92067 130.644 6.783 131.115 6.783C131.264 6.783 131.407 6.79933 131.542 6.832C131.682 6.86467 131.806 6.916 131.913 6.986L131.822 7.917C131.794 8.03367 131.724 8.092 131.612 8.092C131.547 8.092 131.451 8.078 131.325 8.05C131.199 8.022 131.057 8.008 130.898 8.008C130.674 8.008 130.473 8.04067 130.296 8.106C130.123 8.17133 129.967 8.26933 129.827 8.4C129.692 8.526 129.568 8.68467 129.456 8.876C129.349 9.06267 129.251 9.27733 129.162 9.52V14H127.909V6.909H128.623C128.758 6.909 128.852 6.93467 128.903 6.986C128.954 7.03733 128.989 7.126 129.008 7.252L129.092 8.33Z" fill="#949494"/>
<path d="M250.5 8.5L138.5 9L138.5 8L250.5 8.5Z" fill="#949494"/>
</svg>
